<svg version="1.1" xmlns="http://www.w3.org/2000/svg" xmlns:xlink="http://www.w3.org/1999/xlink" width="48" height="48"><defs><linearGradient x1="14.22989" y1="14.22989" x2="54.98331" y2="54.98331" gradientUnits="userSpaceOnUse" id="color-1"><stop offset="0" stop-color="#000000" stop-opacity="0.3"></stop><stop offset="1" stop-color="#000000" stop-opacity="0"></stop></linearGradient><filter id="dropshadow-base"><feColorMatrix type="matrix" values="0 0 0 0 0  0 0 0 0 0  0 0 0 0 0  0 0 0 .8 0"></feColorMatrix> <feOffset dx="0" dy="1"></feOffset> <feGaussianBlur stdDeviation="1"></feGaussianBlur> <feComposite in="SourceGraphic"></feComposite></filter><filter id="dropshadow-banner" x="-10%" y="-10%" width="120%" height="130%"><feColorMatrix type="matrix" values="0 0 0 0 0  0 0 0 0 0  0 0 0 0 0  0 0 0 .4 0"></feColorMatrix> <feOffset dx="0" dy="1"></feOffset> <feGaussianBlur stdDeviation="0.5"></feGaussianBlur> <feComposite in="SourceGraphic"></feComposite></filter></defs><g fill="none" fill-rule="nonzero" stroke="none" stroke-width="none" stroke-linecap="butt" stroke-linejoin="miter" stroke-miterlimit="10" stroke-dasharray="" stroke-dashoffset="0" font-family="none" font-weight="none" font-size="none" text-anchor="none" style="mix-blend-mode: normal"><path d="M2,24c0,-12.15026 9.84974,-22 22,-22c12.15026,0 22,9.84974 22,22c0,12.15026 -9.84974,22 -22,22c-12.15026,0 -22,-9.84974 -22,-22z" id="base 1 5" fill="#57374c" stroke-width="1"></path><path d="M14.77481,33.22519c-0.33672,-0.33672 -0.54492,-0.80196 -0.54492,-1.31606l0.00465,-3.53585h1.39108c0.98204,0 1.83336,-0.56488 2.24643,-1.38712l-3.63751,-3.63751l0.00465,-3.53585c0,-1.02819 0.82348,-1.86097 1.85167,-1.86097h3.72194v-1.39573c0,-1.28407 1.04214,-2.32621 2.32621,-2.32621c0.64203,0 1.22359,0.26054 1.64463,0.68158l3.04036,3.04036h1.36316c0.51409,0 0.97934,0.2082 1.31606,0.54492l14.55451,14.55451c-3.01685,6.6749 -9.2677,11.57506 -16.75447,12.7024z" fill="url(#color-1)" stroke-width="1"></path><path transform="translate(0.55174,0.55174) scale(0.97701,0.97701)" d="M31.61905,23.52381h-1.42857v-3.80952c0,-1.05238 -0.85238,-1.90476 -1.90476,-1.90476h-3.80952v-1.42857c0,-1.31429 -1.06667,-2.38095 -2.38095,-2.38095c-1.31429,0 -2.38095,1.06667 -2.38095,2.38095v1.42857h-3.80952c-1.05238,0 -1.89524,0.85238 -1.89524,1.90476l-0.00476,3.61905h1.42381c1.41905,0 2.57143,1.15238 2.57143,2.57143c0,1.41905 -1.15238,2.57143 -2.57143,2.57143h-1.42381l-0.00476,3.61905c0,1.05238 0.85238,1.90476 1.90476,1.90476h3.61905v-1.42857c0,-1.41905 1.15238,-2.57143 2.57143,-2.57143c1.41905,0 2.57143,1.15238 2.57143,2.57143v1.42857h3.61905c1.05238,0 1.90476,-0.85238 1.90476,-1.90476v-3.80952h1.42857c1.31429,0 2.38095,-1.06667 2.38095,-2.38095c0,-1.31429 -1.06667,-2.38095 -2.38095,-2.38095z" fill="none" stroke-width="0"></path><path d="M33.77011,25.86097c0,1.28407 -1.04214,2.32622 -2.32622,2.32622h-1.39573v3.72195c0,1.02819 -0.83279,1.86097 -1.86097,1.86097h-3.53585v-1.39573c0,-1.38643 -1.12589,-2.51231 -2.51231,-2.51231c-1.38643,0 -2.51231,1.12589 -2.51231,2.51231v1.39573h-3.53585c-1.02819,0 -1.86097,-0.83279 -1.86097,-1.86097l0.00465,-3.53585h1.39108c1.38643,0 2.51231,-1.12589 2.51231,-2.51231c0,-1.38643 -1.12589,-2.51231 -2.51231,-2.51231h-1.39108l0.00465,-3.53585c0,-1.02819 0.82348,-1.86097 1.85167,-1.86097h3.72195v-1.39573c0,-1.28407 1.04214,-2.32622 2.32622,-2.32622c1.28407,0 2.32622,1.04214 2.32622,2.32622v1.39573h3.72195c1.02819,0 1.86097,0.83279 1.86097,1.86097v3.72195h1.39573c1.28407,0 2.32622,1.04214 2.32622,2.32622z" fill="#eb8a8a" stroke-width="0"></path><path d="M2,24c0,-12.15026 9.84974,-22 22,-22c12.15026,0 22,9.84974 22,22c0,12.15026 -9.84974,22 -22,22c-12.15026,0 -22,-9.84974 -22,-22z" id="base 1 1 1" fill="none" stroke-width="1"></path><g fill="#000000" stroke-width="1" font-family="Roboto, sans-serif" font-weight="normal" font-size="14" text-anchor="start"></g><path d="M16,36v-12h30v12z" id="banner 1" fill="#404041" stroke-width="1" filter="url(#dropshadow-banner)"></path><text x="31" y="33" fill="#ffffff" stroke-width="1" font-family="sans-serif" font-weight="bold" font-size="8" text-anchor="middle">DEV</text><rect x="2" y="2" width="44" height="22" fill="none" stroke-width="1"></rect><path d="M2,24v-22h44v22z" fill="none" stroke-width="1"></path><path d="M2,24v-22h44v22z" fill="none" stroke-width="1"></path><path d="M2,24v-22h44v22z" fill="none" stroke-width="1"></path><path d="M2,24v-22h44v22z" fill="none" stroke-width="1"></path></g></svg>