<svg version="1.1" xmlns="http://www.w3.org/2000/svg" xmlns:xlink="http://www.w3.org/1999/xlink" width="48" height="48"><defs><linearGradient x1="14.95914" y1="11.08449" x2="61.08347" y2="64.95812" gradientUnits="userSpaceOnUse" id="color-1"><stop offset="0" stop-color="#000000" stop-opacity="0.3"></stop><stop offset="1" stop-color="#000000" stop-opacity="0"></stop></linearGradient><filter id="dropshadow-base"><feColorMatrix type="matrix" values="0 0 0 0 0  0 0 0 0 0  0 0 0 0 0  0 0 0 .8 0"></feColorMatrix> <feOffset dx="0" dy="1"></feOffset> <feGaussianBlur stdDeviation="1"></feGaussianBlur> <feComposite in="SourceGraphic"></feComposite></filter><filter id="dropshadow-banner" x="-10%" y="-10%" width="120%" height="130%"><feColorMatrix type="matrix" values="0 0 0 0 0  0 0 0 0 0  0 0 0 0 0  0 0 0 .4 0"></feColorMatrix> <feOffset dx="0" dy="1"></feOffset> <feGaussianBlur stdDeviation="0.5"></feGaussianBlur> <feComposite in="SourceGraphic"></feComposite></filter></defs><g fill="none" fill-rule="nonzero" stroke="none" stroke-width="none" stroke-linecap="butt" stroke-linejoin="miter" stroke-miterlimit="10" stroke-dasharray="" stroke-dashoffset="0" font-family="none" font-weight="none" font-size="none" text-anchor="none" style="mix-blend-mode: normal"><path d="M2,24c0,-12.15026 9.84974,-22 22,-22c12.15026,0 22,9.84974 22,22c0,12.15026 -9.84974,22 -22,22c-12.15026,0 -22,-9.84974 -22,-22z" id="base 1 5" fill="#2da841" stroke-width="1"></path><path d="M20.12535,34.33241l2.05034,0l-2.9625,-2.9625c-0.23409,-0.23409 -0.37939,-0.55698 -0.37939,-0.91216l0,-2.72069l-1.22642,-1.22642c-1.63393,-1.63393 -2.64823,-3.88815 -2.64823,-6.38529c0,-4.99185 4.04901,-9.04086 9.04086,-9.04086c2.49592,0 4.75614,1.01225 6.39237,2.64849l15.07964,15.07964c-1.81123,8.11647 -8.10683,14.54155 -16.15118,16.53959l-8.81609,-8.81609c-0.23409,-0.23409 -0.37939,-0.55698 -0.37939,-0.91216z" fill="url(#color-1)" stroke-width="1"></path><path d="M20.12535,35.62396c0,0.71035 0.5812,1.29155 1.29155,1.29155h5.1662c0.71035,0 1.29155,-0.5812 1.29155,-1.29155v-1.29155h-7.74931zM24,11.08449c-4.99185,0 -9.04086,4.04901 -9.04086,9.04086c0,3.07389 1.53695,5.77969 3.87465,7.4135v2.91891c0,0.71035 0.5812,1.29155 1.29155,1.29155h7.74931c0.71035,0 1.29155,-0.5812 1.29155,-1.29155v-2.91891c2.33771,-1.63381 3.87465,-4.33961 3.87465,-7.4135c0,-4.99185 -4.04901,-9.04086 -9.04086,-9.04086zM27.68738,25.42071l-1.10428,0.76847v2.97703h-5.1662v-2.97057l-1.10428,-0.76847c-1.73714,-1.21406 -2.77038,-3.19013 -2.77038,-5.29536c0,-3.55822 2.89953,-6.45776 6.45776,-6.45776c3.55822,0 6.45776,2.89953 6.45776,6.45776c0,2.09877 -1.03324,4.07484 -2.77038,5.2889z" fill="none" stroke-width="0"></path><path d="M20.12535,34.33241h7.74931v1.29155c0,0.71035 -0.5812,1.29155 -1.29155,1.29155h-5.1662c-0.71035,0 -1.29155,-0.5812 -1.29155,-1.29155zM33.04086,20.12535c0,3.07389 -1.53695,5.77969 -3.87465,7.4135v2.91891c0,0.71035 -0.5812,1.29155 -1.29155,1.29155h-7.74931c-0.71035,0 -1.29155,-0.5812 -1.29155,-1.29155v-2.91891c-2.33771,-1.63381 -3.87465,-4.33961 -3.87465,-7.4135c0,-4.99185 4.04901,-9.04086 9.04086,-9.04086c4.99185,0 9.04086,4.04901 9.04086,9.04086zM30.45776,20.1318c0,-3.55822 -2.89953,-6.45776 -6.45776,-6.45776c-3.55822,0 -6.45776,2.89953 -6.45776,6.45776c0,2.10523 1.03324,4.0813 2.77038,5.29536l1.10428,0.76847v2.97057h5.1662v-2.97703l1.10428,-0.76847c1.73714,-1.21406 2.77038,-3.19013 2.77038,-5.2889z" fill="#300909" stroke-width="0"></path><path d="M2,24c0,-12.15026 9.84974,-22 22,-22c12.15026,0 22,9.84974 22,22c0,12.15026 -9.84974,22 -22,22c-12.15026,0 -22,-9.84974 -22,-22z" id="base 1 1 1" fill="none" stroke-width="1"></path><g fill="#000000" stroke-width="1" font-family="Roboto, sans-serif" font-weight="normal" font-size="14" text-anchor="start"></g><rect x="2" y="2" width="44" height="22" fill="none" stroke-width="1"></rect><path d="M2,24v-22h44v22z" fill="none" stroke-width="1"></path><path d="M2,24v-22h44v22z" fill="none" stroke-width="1"></path><path d="M2,24v-22h44v22z" fill="none" stroke-width="1"></path><path d="M2,24v-22h44v22z" fill="none" stroke-width="1"></path><path d="M24,2c12.15026,0 22,9.84974 22,22h-44c0,-12.15026 9.84974,-22 22,-22z" id="base 1 1 1" fill-opacity="0.1" fill="#000000" stroke-width="1"></path></g></svg>